<?xml version="1.0" encoding="iso-8859-1"?>
<!-- Generator: Adobe Illustrator 19.0.0, SVG Export Plug-In . SVG Version: 6.00 Build 0)  -->
<svg version="1.1" id="Capa_1" xmlns="http://www.w3.org/2000/svg" xmlns:xlink="http://www.w3.org/1999/xlink" x="0px" y="0px"
	 viewBox="0 0 416.432 416.432" style="enable-background:new 0 0 416.432 416.432;" xml:space="preserve">
<g>
	<rect x="88.749" y="47.787" style="fill:#00E7FF;" width="225.28" height="300.373"/>
	<path style="fill:#00E7FF;" d="M314.029,354.987H88.749c-3.77,0-6.827-3.053-6.827-6.827V47.787c0-3.773,3.057-6.827,6.827-6.827
		h225.28c3.77,0,6.827,3.053,6.827,6.827V348.16C320.856,351.933,317.799,354.987,314.029,354.987z M95.576,341.333h211.627V54.613
		H95.576V341.333z"/>
</g>
<rect x="68.269" y="27.307" style="fill:#FFE600;" width="225.28" height="300.373"/>
<path style="fill:#602F75;" d="M293.549,334.507H68.269c-3.77,0-6.827-3.053-6.827-6.827V27.307c0-3.773,3.057-6.827,6.827-6.827
	h225.28c3.77,0,6.827,3.053,6.827,6.827V327.68C300.376,331.453,297.319,334.507,293.549,334.507z M75.096,320.853h211.627V34.133
	H75.096V320.853z"/>
<g>
	<polygon style="fill:#EA3457;" points="341.336,409.6 293.549,375.467 245.762,409.6 245.762,334.507 341.336,334.507 	"/>
	<path style="fill:#EA3457;" d="M341.336,416.427c-1.396,0-2.787-0.427-3.966-1.273l-43.82-31.3l-43.82,31.3
		c-2.08,1.493-4.823,1.693-7.09,0.521c-2.273-1.174-3.703-3.514-3.703-6.074v-75.093c0-3.773,3.057-6.827,6.827-6.827h95.573
		c3.77,0,6.827,3.053,6.827,6.827V409.6c0,2.56-1.43,4.9-3.703,6.074C343.476,416.172,342.402,416.427,341.336,416.427z
		 M293.549,368.64c1.389,0,2.78,0.427,3.966,1.273l36.994,26.419v-55.001h-81.92v55.001l36.994-26.419
		C290.769,369.067,292.16,368.64,293.549,368.64z"/>
</g>
<polyline style="fill:#FFFFFF;" points="273.069,232.107 273.069,307.2 47.789,307.2 47.789,6.827 273.069,6.827 273.069,157.013 
	"/>
<path style="fill:#602F75;" d="M273.069,314.027H47.789c-3.77,0-6.827-3.053-6.827-6.827V6.827C40.962,3.053,44.019,0,47.789,0
	h225.28c3.77,0,6.827,3.053,6.827,6.827v150.187c0,3.773-3.057,6.827-6.827,6.827c-3.77,0-6.827-3.053-6.827-6.827V13.653H54.616
	v286.72h211.627v-68.267c0-3.773,3.057-6.827,6.827-6.827c3.77,0,6.827,3.053,6.827,6.827V307.2
	C279.896,310.973,276.839,314.027,273.069,314.027z"/>
<circle style="fill:#FFE600;" cx="293.549" cy="279.895" r="75.093"/>
<path style="fill:#602F75;" d="M293.549,361.813c-45.17,0-81.92-36.746-81.92-81.92s36.75-81.92,81.92-81.92
	s81.92,36.746,81.92,81.92S338.72,361.813,293.549,361.813z M293.549,211.627c-37.644,0-68.267,30.626-68.267,68.267
	s30.623,68.267,68.267,68.267s68.267-30.626,68.267-68.267S331.193,211.627,293.549,211.627z"/>
<path style="fill:#FFFFFF;" d="M252.589,286.72c-3.77,0-6.827-3.053-6.827-6.827c0-26.348,21.437-47.787,47.787-47.787
	c3.77,0,6.827,3.053,6.827,6.827s-3.057,6.827-6.827,6.827c-18.819,0-34.133,15.314-34.133,34.133
	C259.416,283.667,256.359,286.72,252.589,286.72z"/>
<g>
	<path style="fill:#602F75;" d="M136.536,47.787h-61.44c-3.77,0-6.827-3.053-6.827-6.827s3.057-6.827,6.827-6.827h61.44
		c3.77,0,6.827,3.053,6.827,6.827S140.306,47.787,136.536,47.787z"/>
	<path style="fill:#602F75;" d="M177.496,116.053h-102.4c-3.77,0-6.827-3.053-6.827-6.827s3.057-6.827,6.827-6.827h102.4
		c3.77,0,6.827,3.053,6.827,6.827S181.266,116.053,177.496,116.053z"/>
	<path style="fill:#602F75;" d="M177.496,150.187h-102.4c-3.77,0-6.827-3.053-6.827-6.827s3.057-6.827,6.827-6.827h102.4
		c3.77,0,6.827,3.053,6.827,6.827S181.266,150.187,177.496,150.187z"/>
	<path style="fill:#602F75;" d="M136.536,245.76h-61.44c-3.77,0-6.827-3.053-6.827-6.827s3.057-6.827,6.827-6.827h61.44
		c3.77,0,6.827,3.053,6.827,6.827S140.306,245.76,136.536,245.76z"/>
	<path style="fill:#602F75;" d="M245.762,81.92H75.096c-3.77,0-6.827-3.053-6.827-6.827s3.057-6.827,6.827-6.827h170.667
		c3.77,0,6.827,3.053,6.827,6.827S249.533,81.92,245.762,81.92z"/>
</g>
<g>
</g>
<g>
</g>
<g>
</g>
<g>
</g>
<g>
</g>
<g>
</g>
<g>
</g>
<g>
</g>
<g>
</g>
<g>
</g>
<g>
</g>
<g>
</g>
<g>
</g>
<g>
</g>
<g>
</g>
</svg>
